# xmcd
#
# Track frame offsets: 
#        183
#        12988
#        26258
#        39495
#        53700
#        63213
#        72283
#        83640
#        95868
#        105865
#        116733
#        135843
#
# Disc length: 1960 seconds
#
# Revision: 3
# Processed by: cddbd v1.5.2PL0 Copyright (c) Steve Scherf et al.
# Submitted via: ExactAudioCopy v0.99pb5
#
DISCID=8d07a60c
DTITLE=Various Artist - Caetano, Gal, Gil and Bethânia
DYEAR=1900
DGENRE=Brazil
TTITLE0=Caetano Veloso - Cavaleiro
TTITLE1=Gal Costa - Eu Vim da Bahia
TTITLE2=Gilberto Gil - Roda
TTITLE3=Maria Bethania - Pra Que Mentir?
TTITLE4=Caetano Veloso - Samba Em Paz
TTITLE5=Maria Bethania, Gal Costa - Sol Negro
TTITLE6=Gilberto Gil - Procissão
TTITLE7=Gal Costa - Sim, Foi Você
TTITLE8=Gilberto Gil - Iemanjá
TTITLE9=Maria Bethania - Viramundo
TTITLE10=Gal Costa, Caetano Veloso - Sorte
TTITLE11=Maria Bethania - X do Problema
EXTD=
EXTT0=
EXTT1=
EXTT2=
EXTT3=
EXTT4=
EXTT5=
EXTT6=
EXTT7=
EXTT8=
EXTT9=
EXTT10=
EXTT11=
PLAYORDER=
